Format : Matroska 
Format version : Version 2 
File size : 481 MiB 
Duration : 1h 49mn 
Overall bit rate : 613 Kbps 
Writing application : Lavf51.12.1 
Writing library : Lavf51.12.1 

Video 
ID : 1 
Format : AVC 
Format/Info : Advanced Video Codec 
Format profile : Baseline@L3.0 
Format settings, CABAC : No 
Format settings, ReFrames : 1 frame 
Format settings, GOP : M=1, N=12 
Codec ID : V_MPEG4/ISO/AVC 
Duration : 1h 49mn 
Bit rate : 489 Kbps 
Width : 720 pixels 
Height : 480 pixels 
Display aspect ratio : 2.35:1 
Original display aspect ratio : 2.35:1 
Frame rate mode : Variable 
Frame rate : 29.970 fps 
Standard : NTSC 
Color space : YUV 
Chroma subsampling : 4:2:0 
Bit depth : 8 bits 
Scan type : Progressive 
Bits/(Pixel*Frame) : 0.047 
Stream size : 383 MiB (80%) 
Default : Yes 
Forced : No 

Audio 
ID : 2 
Format : MPEG Audio 
Format version : Version 1 
Format profile : Layer 2 
Codec ID : A_MPEG/L2 
Codec ID/Hint : MP2 
Duration : 1h 49mn 
Bit rate mode : Constant 
Bit rate : 112 Kbps 
Channel(s) : 2 channels 
Sampling rate : 44.1 KHz 
Compression mode : Lossy 
Stream size : 87.8 MiB (18%) 
Default : Yes 
Forced : No 
